<svg xmlns="http://www.w3.org/2000/svg" width="1200" height="720" viewBox="0 0 1200 720" role="img" aria-label="Model bakeoff dashboard thumbnail">
  <defs>
    <linearGradient id="bg" x1="0" y1="0" x2="1" y2="1">
      <stop offset="0%" stop-color="#0d1724"/>
      <stop offset="100%" stop-color="#081019"/>
    </linearGradient>
    <linearGradient id="accent1" x1="0" y1="0" x2="1" y2="0">
      <stop offset="0%" stop-color="#56d0c7"/>
      <stop offset="100%" stop-color="#73a6ff"/>
    </linearGradient>
    <linearGradient id="accent2" x1="0" y1="0" x2="1" y2="0">
      <stop offset="0%" stop-color="#f0b35a"/>
      <stop offset="100%" stop-color="#f08eb0"/>
    </linearGradient>
  </defs>
  <rect width="1200" height="720" fill="url(#bg)"/>
  <circle cx="1030" cy="120" r="180" fill="#73a6ff" opacity="0.12"/>
  <circle cx="180" cy="80" r="150" fill="#56d0c7" opacity="0.10"/>
  <rect x="56" y="52" width="1088" height="616" rx="28" fill="#0f1a28" stroke="rgba(255,255,255,0.12)"/>
  <text x="88" y="122" fill="#edf3f8" font-family="Segoe UI, Arial, sans-serif" font-size="52" font-weight="700">Model Bakeoff Dashboard</text>
  <text x="88" y="162" fill="#99afc3" font-family="Segoe UI, Arial, sans-serif" font-size="24">Interactive comparison of local, free, paid, and reference workers</text>

  <rect x="88" y="208" width="286" height="136" rx="20" fill="#142334" stroke="rgba(255,255,255,0.08)"/>
  <text x="112" y="246" fill="#99afc3" font-family="Segoe UI, Arial, sans-serif" font-size="19">Top score</text>
  <text x="112" y="308" fill="#edf3f8" font-family="Segoe UI, Arial, sans-serif" font-size="58" font-weight="700">100%</text>
  <text x="112" y="332" fill="#56d0c7" font-family="Segoe UI, Arial, sans-serif" font-size="20">Hunter / Sonnet lane leaders</text>

  <rect x="394" y="208" width="286" height="136" rx="20" fill="#142334" stroke="rgba(255,255,255,0.08)"/>
  <text x="418" y="246" fill="#99afc3" font-family="Segoe UI, Arial, sans-serif" font-size="19">Fastest avg latency</text>
  <text x="418" y="308" fill="#edf3f8" font-family="Segoe UI, Arial, sans-serif" font-size="58" font-weight="700">1.5s</text>
  <text x="418" y="332" fill="#73a6ff" font-family="Segoe UI, Arial, sans-serif" font-size="20">Sonnet on tuned hardqual</text>

  <rect x="700" y="208" width="286" height="136" rx="20" fill="#142334" stroke="rgba(255,255,255,0.08)"/>
  <text x="724" y="246" fill="#99afc3" font-family="Segoe UI, Arial, sans-serif" font-size="19">Best avg tok/s</text>
  <text x="724" y="308" fill="#edf3f8" font-family="Segoe UI, Arial, sans-serif" font-size="58" font-weight="700">173.8</text>
  <text x="724" y="332" fill="#f0b35a" font-family="Segoe UI, Arial, sans-serif" font-size="20">Qwen Flash burst throughput</text>

  <rect x="88" y="382" width="1010" height="228" rx="24" fill="#111b29" stroke="rgba(255,255,255,0.08)"/>
  <text x="112" y="424" fill="#edf3f8" font-family="Segoe UI, Arial, sans-serif" font-size="28" font-weight="600">Family comparison snapshot</text>
  <g transform="translate(112 454)">
    <text x="0" y="26" fill="#99afc3" font-family="Segoe UI, Arial, sans-serif" font-size="18">Model</text>
    <text x="260" y="26" fill="#99afc3" font-family="Segoe UI, Arial, sans-serif" font-size="18">Extraction</text>
    <text x="430" y="26" fill="#99afc3" font-family="Segoe UI, Arial, sans-serif" font-size="18">JSON</text>
    <text x="560" y="26" fill="#99afc3" font-family="Segoe UI, Arial, sans-serif" font-size="18">Code</text>
    <text x="690" y="26" fill="#99afc3" font-family="Segoe UI, Arial, sans-serif" font-size="18">Tagging</text>
    <text x="840" y="26" fill="#99afc3" font-family="Segoe UI, Arial, sans-serif" font-size="18">Tone</text>

    <text x="0" y="76" fill="#edf3f8" font-family="Segoe UI, Arial, sans-serif" font-size="22">Hunter</text>
    <rect x="248" y="52" width="118" height="32" rx="16" fill="url(#accent1)" opacity="0.9"/>
    <rect x="416" y="52" width="102" height="32" rx="16" fill="url(#accent1)" opacity="0.9"/>
    <rect x="544" y="52" width="102" height="32" rx="16" fill="url(#accent1)" opacity="0.9"/>
    <rect x="674" y="52" width="120" height="32" rx="16" fill="url(#accent1)" opacity="0.9"/>
    <rect x="826" y="52" width="88" height="32" rx="16" fill="#ff7f7a" opacity="0.65"/>

    <text x="0" y="134" fill="#edf3f8" font-family="Segoe UI, Arial, sans-serif" font-size="22">Local Qwen Q3</text>
    <rect x="248" y="110" width="118" height="32" rx="16" fill="url(#accent1)" opacity="0.9"/>
    <rect x="416" y="110" width="102" height="32" rx="16" fill="url(#accent1)" opacity="0.9"/>
    <rect x="544" y="110" width="102" height="32" rx="16" fill="url(#accent1)" opacity="0.9"/>
    <rect x="674" y="110" width="84" height="32" rx="16" fill="#f0b35a" opacity="0.75"/>
    <rect x="826" y="110" width="76" height="32" rx="16" fill="#ff7f7a" opacity="0.65"/>

    <text x="0" y="192" fill="#edf3f8" font-family="Segoe UI, Arial, sans-serif" font-size="22">Sonnet</text>
    <rect x="248" y="168" width="118" height="32" rx="16" fill="url(#accent2)" opacity="0.9"/>
    <rect x="416" y="168" width="102" height="32" rx="16" fill="url(#accent2)" opacity="0.9"/>
    <rect x="544" y="168" width="102" height="32" rx="16" fill="url(#accent2)" opacity="0.9"/>
    <rect x="674" y="168" width="120" height="32" rx="16" fill="url(#accent2)" opacity="0.9"/>
    <rect x="826" y="168" width="120" height="32" rx="16" fill="url(#accent2)" opacity="0.9"/>
  </g>
</svg>
